<svg width="260" height="260" viewBox="0 0 260 260" xmlns="http://www.w3.org/2000/svg">
<rect width="260" height="260" fill="#0d1117"/>
<circle cx="130" cy="130" r="30" fill="none" stroke="#1f3d1f" stroke-width="1.2"/>
<circle cx="130" cy="130" r="55" fill="none" stroke="#1f3d1f" stroke-width="1.2"/>
<circle cx="130" cy="130" r="80" fill="none" stroke="#1f3d1f" stroke-width="1.2"/>
<circle cx="130" cy="130" r="110" fill="none" stroke="#1f3d1f" stroke-width="1.2"/>
<line x1="20" y1="130" x2="240" y2="130" stroke="#1f3d1f" stroke-width="1"/>
<line x1="130" y1="20" x2="130" y2="240" stroke="#1f3d1f" stroke-width="1"/>
<defs>
  <linearGradient id="sweepGrad" x1="0" y1="0" x2="1" y2="0">
    <stop offset="0%" stop-color="#39FF14" stop-opacity="0"/>
    <stop offset="100%" stop-color="#39FF14" stop-opacity="0.55"/>
  </linearGradient>
</defs>
<g>
  <path d="M 130 130 L 130 20 A 110 110 0 0 1 185 34.74 Z" fill="url(#sweepGrad)"/>
  <animateTransform attributeName="transform" attributeType="XML" type="rotate"
     from="0 130 130" to="360 130 130" dur="4s" repeatCount="indefinite"/>
</g>
<circle cx="110" cy="170" r="3" fill="#39FF14">
  <animate attributeName="opacity" values="0;1;0" dur="4s" begin="2.28s" repeatCount="indefinite"/>
</circle>
<circle cx="193" cy="161" r="3" fill="#39FF14">
  <animate attributeName="opacity" values="0;1;0" dur="4s" begin="1.28s" repeatCount="indefinite"/>
</circle>
<circle cx="194" cy="154" r="3" fill="#39FF14">
  <animate attributeName="opacity" values="0;1;0" dur="4s" begin="0.13s" repeatCount="indefinite"/>
</circle>
<circle cx="94" cy="146" r="3" fill="#39FF14">
  <animate attributeName="opacity" values="0;1;0" dur="4s" begin="0.32s" repeatCount="indefinite"/>
</circle>
<circle cx="51" cy="171" r="3" fill="#39FF14">
  <animate attributeName="opacity" values="0;1;0" dur="4s" begin="0.43s" repeatCount="indefinite"/>
</circle>
<circle cx="130" cy="130" r="3" fill="#39FF14"/>
<circle cx="130" cy="130" r="110" fill="none" stroke="#39FF14" stroke-width="1.5" opacity="0.6">
  <animate attributeName="r" values="105;115;105" dur="3s" repeatCount="indefinite"/>
  <animate attributeName="opacity" values="0.6;0.15;0.6" dur="3s" repeatCount="indefinite"/>
</circle>
</svg>